# xmcd
# 
# Track frame offsets:
#     150
#     4442
#     20197
#     45767
#     63710
#     86120
#     107647
#     134350
#     137322
#     158275
#     171400
#     192695
# 
# Disc length: 2839
# 
# Revision: 1
# Processed by: cddbd v1.5.2PL0 Copyright (c) Steve Scherf et al.
# Submitted via: BonkEnc v1.0.6
# 
DISCID=a10b150c
DTITLE=HEADHUNTER - Rebirth
DYEAR=0
DGENRE=Heavy Metal
TTITLE0=Auf Geht's
TTITLE1=Armies Of The Blind
TTITLE2=Warhead
TTITLE3=Unhuman World
TTITLE4=Mistreated
TTITLE5=Aer We Mindless?
TTITLE6=Too Late For A Change
TTITLE7=Disco
TTITLE8=Scares
TTITLE9=Adrenalin
TTITLE10=Struck
TTITLE11=Don't Bogart
EXTD=
EXTT0=
EXTT1=
EXTT2=
EXTT3=
EXTT4=
EXTT5=
EXTT6=
EXTT7=
EXTT8=
EXTT9=
EXTT10=
EXTT11=
PLAYORDER=
